<svg xmlns="http://www.w3.org/2000/svg" version="1.1" xmlns:xlink="http://www.w3.org/1999/xlink" xmlns:svgjs="http://svgjs.dev/svgjs" width="1121" height="862"><svg version="1.1" id="SvgjsSvg1034" xmlns="http://www.w3.org/2000/svg" xmlns:xlink="http://www.w3.org/1999/xlink" x="0px" y="0px" viewBox="0 0 1121 862" style="enable-background:new 0 0 1121 862;" xml:space="preserve">
<g>
	<g>
		<g>
			<rect x="198.38" y="314.47" width="70.93" height="108.4"></rect>
			<rect x="198.38" y="467.87" width="70.93" height="79.66"></rect>
		</g>
		<g>
			<path d="M377.74,422.86v-53.66l98.54,0.02l-0.01,0.01c2.25,0,4.42,0.07,6.54,0.18c0.5,0.02,1,0.04,1.49,0.07
				c2.07,0.13,4.09,0.28,6.04,0.51c0.28,0.03,0.54,0.07,0.81,0.1c6.19,0.74,11.78,1.98,16.77,3.69c0.3,0.1,0.6,0.19,0.89,0.3
				c1.52,0.55,2.97,1.15,4.37,1.78c0.34,0.16,0.67,0.32,1,0.48c5.97,2.88,10.84,6.62,14.59,11.2c0.22,0.28,0.45,0.55,0.67,0.83
				c0.83,1.07,1.61,2.18,2.31,3.33c0.13,0.22,0.25,0.45,0.38,0.68c2.21,3.78,3.81,8.02,4.79,12.71c0.07,0.3,0.14,0.59,0.19,0.89
				c0.28,1.46,0.49,2.98,0.65,4.54c0.04,0.42,0.07,0.83,0.11,1.26c0.13,1.61,0.23,3.23,0.25,4.93l-0.02,6.15h70.89l0.07-18.72
				c-0.01-3.2-0.21-6.27-0.46-9.3c-0.07-0.8-0.13-1.59-0.21-2.37c-0.3-2.93-0.7-5.78-1.23-8.55c-0.11-0.57-0.25-1.12-0.37-1.69
				c-1.86-8.84-4.87-16.84-9.04-23.98c-0.25-0.42-0.47-0.85-0.72-1.27c-1.34-2.19-2.8-4.27-4.36-6.28
				c-0.41-0.53-0.83-1.05-1.26-1.57c-7.07-8.65-16.26-15.7-27.52-21.12c-0.62-0.31-1.25-0.61-1.89-0.9
				c-2.65-1.2-5.39-2.33-8.25-3.37c-0.55-0.2-1.12-0.37-1.68-0.56c-9.41-3.23-19.94-5.57-31.61-6.97c-0.51-0.06-1.01-0.14-1.53-0.2
				c-3.68-0.42-7.49-0.72-11.39-0.95c-0.93-0.05-1.87-0.1-2.8-0.15c-4.01-0.19-8.1-0.33-12.33-0.33l-114.67-0.04v-0.06H306.8v108.4
				H377.74z"></path>
			<path d="M533.03,467.86c-0.32,0.63-0.66,1.26-1.02,1.86c-0.28,0.46-0.59,0.9-0.88,1.35c-0.65,1-1.32,1.98-2.06,2.91
				c-0.47,0.59-1,1.14-1.51,1.7c-0.65,0.72-1.29,1.46-2,2.13c-0.81,0.77-1.71,1.49-2.6,2.2c-0.51,0.4-0.97,0.83-1.49,1.21
				c-10.74,7.84-26.65,11.69-47.48,11.42h-96.25v-24.79H306.8v79.67h70.93v-0.15h110.35c39.28,0.51,69.28-6.74,89.53-21.53
				c1-0.72,1.87-1.53,2.82-2.29c1.68-1.35,3.38-2.69,4.91-4.16c1.35-1.27,2.54-2.66,3.78-4.02c0.96-1.06,1.96-2.1,2.85-3.22
				c1.4-1.75,2.65-3.61,3.88-5.49c0.55-0.85,1.15-1.67,1.66-2.54c1.3-2.19,2.45-4.48,3.53-6.83c0.3-0.67,0.64-1.32,0.93-2
				c1.11-2.59,2.05-5.3,2.9-8.07c0.16-0.51,0.33-1.02,0.47-1.54c0.85-2.97,1.53-6.08,2.09-9.26c0.07-0.39,0.13-0.77,0.2-1.14
				c0.39-2.41,0.7-4.89,0.92-7.42H533.03z"></path>
		</g>
		<g>
			<path d="M631.62,396.83c0.22,0.48,0.22,1,0.25,1.47c0.04,0.56,0.09,1.12,0.15,1.67c0.22,2.07,0.5,4.09,0.87,6.04
				c0.07,0.4,0.18,0.8,0.26,1.19c1.2,5.72,3.1,10.94,5.68,15.66h262.43c-3.17-2.4-6.67-4.53-10.53-6.39
				c-0.45-0.22-0.88-0.43-1.33-0.64c-1.87-0.85-3.81-1.65-5.83-2.38c-0.39-0.14-0.79-0.27-1.19-0.4
				c-6.65-2.29-14.09-3.93-22.33-4.93c-0.36-0.04-0.71-0.1-1.08-0.14c-2.6-0.29-5.29-0.51-8.05-0.67c-0.65-0.04-1.32-0.07-1.99-0.1
				c-2.83-0.13-5.72-0.23-8.71-0.24h-24.23l-77.75-0.03c0-0.02-10.08-0.02-10.08-0.02c-1.24,0-2.45-0.04-3.62-0.1
				c-0.27-0.02-0.55-0.03-0.83-0.04c-1.14-0.07-2.27-0.16-3.35-0.28c-0.15-0.02-0.3-0.04-0.45-0.06
				c-9.56-1.15-19.49-4.19-23.52-13.84c-2.36-5.64-1.96-12.37,1.05-17.69c6.13-10.87,20.77-12.36,31.98-12.22
				c0-0.03,8.81-0.01,8.81-0.01c0-0.07,77.75-0.07,77.75-0.07c0,0.07,8.82,0.06,8.82,0.06c11.53-0.12,20.33,2.01,26.28,6.35
				c0.29,0.21,0.55,0.45,0.83,0.67c0.49,0.39,0.99,0.79,1.44,1.22c0.39,0.37,0.74,0.78,1.11,1.18c0.28,0.31,0.57,0.62,0.84,0.94
				c0.41,0.51,0.78,1.06,1.14,1.61c0.16,0.25,0.33,0.49,0.48,0.74c0.39,0.64,0.72,1.32,1.03,2.01c0.09,0.19,0.19,0.39,0.27,0.59
				c0.33,0.76,0.6,1.55,0.86,2.37c0.04,0.15,0.1,0.3,0.14,0.45c0.25,0.88,0.45,1.78,0.62,2.72c0.02,0.11,0.04,0.22,0.06,0.33
				c0.16,0.98,0.27,2,0.33,3.05c0.01,0.12,0.04,6.73,0.04,6.73h62.32l-0.08-20.43c0-0.1-0.03-0.19-0.03-0.29
				c-0.16-2.52-0.43-4.97-0.81-7.33c-0.04-0.27-0.1-0.54-0.14-0.81c-0.39-2.25-0.88-4.44-1.47-6.54c-0.1-0.36-0.22-0.72-0.33-1.09
				c-0.6-1.96-1.27-3.87-2.05-5.71c-0.2-0.48-0.44-0.94-0.65-1.41c-0.77-1.66-1.58-3.28-2.49-4.83c-0.36-0.62-0.78-1.2-1.17-1.79
				c-0.87-1.33-1.75-2.65-2.74-3.88c-0.62-0.79-1.34-1.52-2.02-2.28c-0.87-0.96-1.72-1.94-2.67-2.84c-1.08-1.03-2.28-1.98-3.47-2.94
				c-0.67-0.54-1.29-1.11-1.99-1.61c-14.32-10.45-35.51-15.58-63.26-15.21H717.03c-27.75-0.36-48.94,4.77-63.26,15.21
				c-0.7,0.51-1.32,1.09-1.99,1.61c-1.19,0.95-2.39,1.9-3.46,2.94c-0.95,0.9-1.8,1.88-2.67,2.84c-0.68,0.75-1.39,1.49-2.01,2.28
				c-0.99,1.23-1.87,2.56-2.74,3.88c-0.39,0.6-0.8,1.17-1.17,1.79c-0.92,1.55-1.73,3.17-2.5,4.83c-0.22,0.47-0.45,0.93-0.65,1.41
				c-0.78,1.83-1.45,3.74-2.05,5.71c-0.11,0.36-0.23,0.72-0.33,1.09c-0.59,2.1-1.09,4.29-1.47,6.54c-0.04,0.27-0.1,0.54-0.14,0.81
				c-0.38,2.31-0.63,4.71-0.8,7.17c-0.14,0-0.22,19-0.22,19c0,0.59,0.07,1.15,0.08,1.72L631.62,396.83z"></path>
			<path d="M922.58,467.86h-65.68c1.33,2.17,2.26,4.57,2.61,7.07c0.09,0.65,0.14,1.32,0.16,1.98c0.09,5.42-2.59,10.68-6.58,14.35
				c-7.55,6.95-18.47,8.17-28.29,8.04c0,0.03-8.81,0.01-8.81,0.01c0,0.07-77.75,0.07-77.75,0.07c0-0.07-8.82-0.06-8.82-0.06
				c-11.53,0.12-20.33-2.01-26.28-6.35c-0.29-0.21-0.55-0.45-0.83-0.67c-0.49-0.39-0.99-0.79-1.44-1.22
				c-0.39-0.37-0.74-0.78-1.11-1.18c-0.28-0.31-0.57-0.62-0.84-0.94c-0.41-0.51-0.78-1.06-1.14-1.61c-0.16-0.25-0.33-0.49-0.48-0.74
				c-0.39-0.64-0.72-1.32-1.03-2.01c-0.09-0.19-0.19-0.39-0.27-0.59c-0.33-0.76-0.6-1.55-0.85-2.37c-0.04-0.15-0.1-0.3-0.14-0.45
				c-0.25-0.88-0.45-1.78-0.62-2.72c-0.01-0.11-0.04-0.22-0.06-0.33c-0.16-0.98-0.27-2-0.33-3.05c-0.01-0.12-0.04-6.73-0.04-6.73
				h-62.32l0.07,20.43c0,0.1,0.03,0.19,0.03,0.29c0.16,2.52,0.43,4.97,0.81,7.33c0.04,0.28,0.1,0.54,0.14,0.81
				c0.39,2.25,0.88,4.44,1.47,6.54c0.1,0.36,0.22,0.72,0.33,1.08c0.6,1.96,1.27,3.87,2.05,5.71c0.2,0.48,0.44,0.94,0.65,1.41
				c0.77,1.66,1.58,3.28,2.49,4.83c0.36,0.62,0.78,1.2,1.17,1.79c0.87,1.33,1.75,2.65,2.74,3.88c0.62,0.79,1.34,1.52,2.01,2.28
				c0.87,0.96,1.72,1.94,2.67,2.84c1.08,1.03,2.28,1.98,3.47,2.94c0.67,0.54,1.29,1.11,1.98,1.61
				c14.32,10.45,35.51,15.58,63.26,15.21c0,0.07,120.18,0,120.18,0c27.75,0.36,48.94-4.77,63.26-15.21c0.7-0.51,1.32-1.09,1.99-1.61
				c1.19-0.95,2.39-1.9,3.46-2.94c0.95-0.9,1.8-1.88,2.67-2.84c0.68-0.75,1.39-1.49,2.01-2.28c0.99-1.23,1.87-2.56,2.74-3.88
				c0.39-0.6,0.8-1.17,1.17-1.79c0.92-1.55,1.73-3.17,2.5-4.83c0.22-0.47,0.45-0.93,0.65-1.41c0.78-1.83,1.45-3.74,2.05-5.71
				c0.11-0.36,0.23-0.72,0.33-1.08c0.59-2.1,1.08-4.29,1.47-6.54c0.04-0.27,0.1-0.54,0.14-0.81c0.38-2.31,0.63-4.71,0.8-7.17
				c0.1,0,0.18-19,0.18-19c0-0.35-0.04-0.68-0.05-1.03L922.58,467.86z"></path>
		</g>
	</g>
	<g>
		<path d="M199.51,454.5h-0.6V437.5h0.6V454.5z"></path>
		<path d="M229.73,453.92V437.5h0.6v16.99h-1.03l-9.96-16.23l-0.02,16.23h-0.62V437.5h0.94L229.73,453.92z"></path>
		<path d="M259.73,438.1h-5.66v16.39h-0.6V438.1h-5.66v-0.6h11.93V438.1z"></path>
		<path d="M277.8,445.71h8.79v0.65h-8.79v7.54h9.5v0.6h-10.1V437.5h10.1v0.6h-9.5V445.71z"></path>
		<path d="M305.45,454.5V437.5h0.6v16.39h8.5v0.6H305.45z"></path>
		<path d="M331.97,454.5V437.5h0.6v16.39h8.5v0.6H331.97z"></path>
		<path d="M359.11,454.5h-0.6V437.5h0.6V454.5z"></path>
		<path d="M377.93,442.02c0-3.12,2.98-4.75,5.95-4.75c2.14,0,4.25,0.84,5.26,2.47l-0.55,0.36c-0.86-1.56-2.81-2.23-4.75-2.23
			c-2.66,0-5.3,1.37-5.3,4.15v7.9c0,2.83,2.66,4.25,5.35,4.25c2.66,0,5.38-1.42,5.38-4.25v-3.22h-5.21v-0.58h5.81v3.79
			c0,3.22-3,4.82-5.98,4.82s-5.95-1.61-5.95-4.82V442.02z"></path>
		<path d="M408.81,445.71h8.79v0.65h-8.79v7.54h9.5v0.6h-10.1V437.5h10.1v0.6h-9.5V445.71z"></path>
		<path d="M447.53,453.92V437.5h0.6v16.99h-1.03l-9.96-16.23l-0.02,16.23h-0.62V437.5h0.94L447.53,453.92z"></path>
		<path d="M477.53,438.1h-5.66v16.39h-0.6V438.1h-5.66v-0.6h11.93V438.1z"></path>
		<path d="M520.77,437.5c2.98,0,5.47,1.34,5.47,4.56v7.9c0,3.19-2.5,4.54-5.47,4.54h-5.74V437.5H520.77z M520.77,453.9
			c2.69,0,4.87-1.13,4.87-3.94v-7.9c0-2.83-2.18-3.96-4.87-3.96h-5.14v15.79H520.77z"></path>
		<path d="M545.73,454.5h-0.6V437.5h0.6V454.5z"></path>
		<path d="M564.55,442.02c0-3.12,2.98-4.75,5.95-4.75c2.14,0,4.25,0.84,5.26,2.47l-0.55,0.36c-0.86-1.56-2.81-2.23-4.75-2.23
			c-2.66,0-5.3,1.37-5.3,4.15v7.9c0,2.83,2.66,4.25,5.35,4.25c2.67,0,5.38-1.42,5.38-4.25v-3.22h-5.21v-0.58h5.81v3.79
			c0,3.22-3,4.82-5.98,4.82c-2.98,0-5.95-1.61-5.95-4.82V442.02z"></path>
		<path d="M595.44,454.5h-0.6V437.5h0.6V454.5z"></path>
		<path d="M624.84,438.1h-5.66v16.39h-0.6V438.1h-5.66v-0.6h11.93V438.1z"></path>
		<path d="M639.21,454.5h-0.65l6.29-16.99h0.96l6.29,16.99h-0.65l-2.26-6.07h-7.73L639.21,454.5z M645.28,438.08l-3.6,9.74h7.3
			l-3.6-9.74H645.28z"></path>
		<path d="M669.45,454.5V437.5h0.6v16.39h8.5v0.6H669.45z"></path>
		<path d="M720.86,445.52c2.78,0.55,5.81,1.68,5.57,5.02c-0.19,2.74-2.93,4.2-5.71,4.2c-2.09,0-4.32-0.82-5.59-2.74l0.55-0.24
			c1.1,1.58,3.1,2.4,5.09,2.4c2.35,0,4.68-1.13,5.02-3.62c0.22-3.02-2.42-3.86-5.06-4.44c-2.54-0.53-5.59-1.49-5.45-4.7
			c0.1-2.81,2.76-4.13,5.47-4.13c2.18,0,4.22,0.77,5.28,2.62l-0.55,0.22c-0.89-1.54-2.83-2.26-4.73-2.26c-2.4,0-4.7,1.01-4.87,3.55
			C715.68,443.91,718.12,444.97,720.86,445.52z"></path>
		<path d="M748.92,454.5h-0.6v-6.74l-5.81-10.25h0.72l5.4,9.58l5.57-9.58h0.74l-6.02,10.25V454.5z"></path>
		<path d="M776.73,445.52c2.78,0.55,5.81,1.68,5.57,5.02c-0.19,2.74-2.93,4.2-5.71,4.2c-2.09,0-4.32-0.82-5.59-2.74l0.55-0.24
			c1.1,1.58,3.1,2.4,5.09,2.4c2.35,0,4.68-1.13,5.02-3.62c0.22-3.02-2.42-3.86-5.06-4.44c-2.54-0.53-5.59-1.49-5.45-4.7
			c0.1-2.81,2.76-4.13,5.47-4.13c2.18,0,4.22,0.77,5.28,2.62l-0.55,0.22c-0.89-1.54-2.83-2.26-4.73-2.26c-2.4,0-4.7,1.01-4.87,3.55
			C771.55,443.91,774,444.97,776.73,445.52z"></path>
		<path d="M810.48,438.1h-5.66v16.39h-0.6V438.1h-5.66v-0.6h11.93V438.1z"></path>
		<path d="M828.55,445.71h8.79v0.65h-8.79v7.54h9.5v0.6h-10.1V437.5h10.1v0.6h-9.5V445.71z"></path>
		<path d="M857.03,438.1l-0.22,0.02v16.37h-0.6V437.5h1.27l6.07,13.75l6.05-13.75h1.27v16.99h-0.6v-16.56h-0.22l-6.1,13.87h-0.82
			L857.03,438.1z"></path>
		<path d="M894.88,445.52c2.78,0.55,5.81,1.68,5.57,5.02c-0.19,2.74-2.93,4.2-5.71,4.2c-2.09,0-4.32-0.82-5.59-2.74l0.55-0.24
			c1.1,1.58,3.1,2.4,5.09,2.4c2.35,0,4.68-1.13,5.02-3.62c0.22-3.02-2.42-3.86-5.06-4.44c-2.54-0.53-5.59-1.49-5.45-4.7
			c0.1-2.81,2.76-4.13,5.47-4.13c2.18,0,4.22,0.77,5.28,2.62l-0.55,0.22c-0.89-1.54-2.83-2.26-4.73-2.26c-2.4,0-4.7,1.01-4.87,3.55
			C889.7,443.91,892.15,444.97,894.88,445.52z"></path>
	</g>
</g>
</svg><style>@media (prefers-color-scheme: light) { :root { filter: none; } }
@media (prefers-color-scheme: dark) { :root { filter: none; } }
</style></svg>