<?xml version="1.0" encoding="utf-8"?><svg xmlns="http://www.w3.org/2000/svg" xmlns:xlink="http://www.w3.org/1999/xlink"><symbol viewBox="0 0 15 14" id="arrow" xmlns="http://www.w3.org/2000/svg">
    <path d="M14.6389 7.6388C14.9918 7.28592 14.9918 6.71378 14.6389 6.3609L8.88841 0.610365C8.53553 0.257483 7.96339 0.257483 7.61051 0.610365C7.25763 0.963246 7.25763 1.53538 7.61051 1.88826L12.7221 6.99985L7.61051 12.1114C7.25763 12.4643 7.25763 13.0364 7.61051 13.3893C7.96339 13.7422 8.53553 13.7422 8.88841 13.3893L14.6389 7.6388ZM1.58005e-07 7.90346H14V6.09624H0L1.58005e-07 7.90346Z"/>
</symbol><symbol viewBox="0 0 16 16" id="facebook" xmlns="http://www.w3.org/2000/svg">
    <path fill-rule="evenodd" clip-rule="evenodd" d="M14 0H2C0.897 0 0 0.897 0 2V14C0 15.103 0.897 16 2 16H8V10.5H6V8H8V6C8 5.20435 8.31607 4.44129 8.87868 3.87868C9.44129 3.31607 10.2044 3 11 3H13V5.5H12C11.448 5.5 11 5.448 11 6V8H13.5L12.5 10.5H11V16H14C15.103 16 16 15.103 16 14V2C16 0.897 15.103 0 14 0Z"/>
</symbol><symbol viewBox="0 0 13 17" id="file" xmlns="http://www.w3.org/2000/svg">
    <path d="M7.75298 0.583984C8.12471 0.584075 8.48455 0.714953 8.76948 0.953693L8.8724 1.0479L12.3668 4.54232C12.6297 4.80517 12.7916 5.15212 12.8244 5.5224L12.8307 5.66173V14.834C12.8309 15.2334 12.68 15.6182 12.4084 15.9111C12.1368 16.204 11.7645 16.3834 11.3661 16.4134L11.2474 16.4173H1.7474C1.34794 16.4174 0.963197 16.2666 0.670295 15.995C0.377393 15.7234 0.19798 15.3511 0.168021 14.9527L0.164063 14.834V2.16732C0.163936 1.76786 0.314801 1.38312 0.586414 1.09022C0.858028 0.797315 1.23031 0.617902 1.62865 0.587943L1.7474 0.583984H7.75298ZM6.4974 2.16732H1.7474V14.834H11.2474V6.91732H7.6849C7.36995 6.91732 7.06791 6.79221 6.84521 6.56951C6.62251 6.34681 6.4974 6.04476 6.4974 5.72982V2.16732ZM8.08073 2.49507V5.33398H10.9196L8.08073 2.49507Z"/>
</symbol><symbol viewBox="0 0 16 16" id="instagram" xmlns="http://www.w3.org/2000/svg">
    <path d="M8 1.44578C10.1205 1.44578 10.4096 1.44578 11.2771 1.44578C12.0482 1.44578 12.4337 1.63855 12.7229 1.73494C13.1084 1.92771 13.3976 2.0241 13.6867 2.31325C13.9759 2.60241 14.1687 2.89157 14.2651 3.27711C14.3614 3.56627 14.4578 3.95181 14.5542 4.72289C14.5542 5.59036 14.5542 5.78313 14.5542 8C14.5542 10.2169 14.5542 10.4096 14.5542 11.2771C14.5542 12.0482 14.3614 12.4337 14.2651 12.7229C14.0723 13.1084 13.9759 13.3976 13.6867 13.6867C13.3976 13.9759 13.1084 14.1687 12.7229 14.2651C12.4337 14.3614 12.0482 14.4578 11.2771 14.5542C10.4096 14.5542 10.2169 14.5542 8 14.5542C5.78313 14.5542 5.59036 14.5542 4.72289 14.5542C3.95181 14.5542 3.56627 14.3614 3.27711 14.2651C2.89157 14.0723 2.60241 13.9759 2.31325 13.6867C2.0241 13.3976 1.83133 13.1084 1.73494 12.7229C1.63855 12.4337 1.54217 12.0482 1.44578 11.2771C1.44578 10.4096 1.44578 10.2169 1.44578 8C1.44578 5.78313 1.44578 5.59036 1.44578 4.72289C1.44578 3.95181 1.63855 3.56627 1.73494 3.27711C1.92771 2.89157 2.0241 2.60241 2.31325 2.31325C2.60241 2.0241 2.89157 1.83133 3.27711 1.73494C3.56627 1.63855 3.95181 1.54217 4.72289 1.44578C5.59036 1.44578 5.87952 1.44578 8 1.44578ZM8 0C5.78313 0 5.59036 0 4.72289 0C3.85542 0 3.27711 0.192772 2.79518 0.385543C2.31325 0.578314 1.83133 0.867471 1.3494 1.3494C0.867471 1.83133 0.674699 2.21687 0.385543 2.79518C0.192772 3.27711 0.0963856 3.85542 0 4.72289C0 5.59036 0 5.87952 0 8C0 10.2169 0 10.4096 0 11.2771C0 12.1446 0.192772 12.7229 0.385543 13.2048C0.578314 13.6867 0.867471 14.1687 1.3494 14.6506C1.83133 15.1325 2.21687 15.3253 2.79518 15.6145C3.27711 15.8072 3.85542 15.9036 4.72289 16C5.59036 16 5.87952 16 8 16C10.1205 16 10.4096 16 11.2771 16C12.1446 16 12.7229 15.8072 13.2048 15.6145C13.6867 15.4217 14.1687 15.1325 14.6506 14.6506C15.1325 14.1687 15.3253 13.7831 15.6145 13.2048C15.8072 12.7229 15.9036 12.1446 16 11.2771C16 10.4096 16 10.1205 16 8C16 5.87952 16 5.59036 16 4.72289C16 3.85542 15.8072 3.27711 15.6145 2.79518C15.4217 2.31325 15.1325 1.83133 14.6506 1.3494C14.1687 0.867471 13.7831 0.674699 13.2048 0.385543C12.7229 0.192772 12.1446 0.0963856 11.2771 0C10.4096 0 10.2169 0 8 0Z"/>
    <path d="M8 3.85542C5.68675 3.85542 3.85542 5.68675 3.85542 8C3.85542 10.3133 5.68675 12.1446 8 12.1446C10.3133 12.1446 12.1446 10.3133 12.1446 8C12.1446 5.68675 10.3133 3.85542 8 3.85542ZM8 10.6988C6.55422 10.6988 5.30121 9.54217 5.30121 8C5.30121 6.55422 6.45783 5.30121 8 5.30121C9.44578 5.30121 10.6988 6.45783 10.6988 8C10.6988 9.44578 9.44578 10.6988 8 10.6988Z"/>
    <path d="M12.241 4.72289C12.7733 4.72289 13.2048 4.29136 13.2048 3.75904C13.2048 3.22671 12.7733 2.79518 12.241 2.79518C11.7086 2.79518 11.2771 3.22671 11.2771 3.75904C11.2771 4.29136 11.7086 4.72289 12.241 4.72289Z"/>
</symbol><symbol viewBox="0 0 106 38" id="logo" xmlns="http://www.w3.org/2000/svg">
    <path d="M1.74377 22.0711H1.67969V20.3281H1.74377V22.0711Z"/>
    <path d="M6.08149 22.0134V20.3281H6.14557V22.0711H6.03663L5.01135 20.405V22.0711H4.94727V20.3281H5.04339L6.08149 22.0134Z"/>
    <path d="M10.58 20.3893H9.99682V22.0746H9.93274V20.3893H9.34961V20.3252H10.5735V20.3893H10.58Z"/>
    <path d="M13.8492 21.1676H14.7528V21.2317H13.8492V22.007H14.8233V22.0711H13.7852V20.3281H14.8233V20.3922H13.8492V21.174V21.1676Z"/>
    <path d="M18.0273 22.0677V20.3247H18.0914V22.01H18.9629V22.0741H18.0273V22.0677Z"/>
    <path d="M22.166 22.0677V20.3247H22.2301V22.01H23.1016V22.0741H22.166V22.0677Z"/>
    <path d="M26.3707 22.0711H26.3066V20.3281H26.3707V22.0711Z"/>
    <path d="M29.5806 20.7863C29.5806 20.4659 29.8882 20.2993 30.1894 20.2993C30.4073 20.2993 30.6251 20.3826 30.7277 20.5556L30.67 20.5941C30.5803 20.4339 30.3816 20.3634 30.183 20.3634C29.9074 20.3634 29.6383 20.5044 29.6383 20.7927V21.6066C29.6383 21.8949 29.9138 22.0423 30.1894 22.0423C30.4649 22.0423 30.7405 21.8949 30.7405 21.6066V21.2733H30.2022V21.2157H30.7982V21.6066C30.7982 21.9398 30.4906 22.1 30.183 22.1C29.8754 22.1 29.5742 21.9334 29.5742 21.6066V20.7927L29.5806 20.7863Z"/>
    <path d="M34.066 21.1676H34.9696V21.2317H34.066V22.007H35.0401V22.0711H34.002V20.3281H35.0401V20.3922H34.066V21.174V21.1676Z"/>
    <path d="M39.3784 22.0134V20.3281H39.4424V22.0711H39.3335L38.3082 20.405V22.0711H38.2441V20.3281H38.3403L39.3784 22.0134Z"/>
    <path d="M43.8768 20.3888H43.2937V22.0741H43.2296V20.3888H42.6465V20.3247H43.8704V20.3888H43.8768Z"/>
    <path d="M47.6696 20.3247C47.9772 20.3247 48.2335 20.4657 48.2335 20.7925V21.6063C48.2335 21.9331 47.9772 22.0741 47.6696 22.0741H47.0801V20.3311H47.6696V20.3247ZM47.6696 22.01C47.9452 22.01 48.1694 21.8947 48.1694 21.6063V20.7925C48.1694 20.5041 47.9452 20.3824 47.6696 20.3824H47.1442V22.0036H47.6696V22.01Z"/>
    <path d="M51.5016 22.0711H51.4375V20.3281H51.5016V22.0711Z"/>
    <path d="M54.7115 20.7863C54.7115 20.4659 55.0191 20.2993 55.3203 20.2993C55.5381 20.2993 55.756 20.3826 55.8585 20.5556L55.8009 20.5941C55.7111 20.4339 55.5125 20.3634 55.3138 20.3634C55.0383 20.3634 54.7692 20.5044 54.7692 20.7927V21.6066C54.7692 21.8949 55.0447 22.0423 55.3203 22.0423C55.5958 22.0423 55.8713 21.8949 55.8713 21.6066V21.2733H55.3331V21.2157H55.929V21.6066C55.929 21.9398 55.6214 22.1 55.3138 22.1C55.0063 22.1 54.7051 21.9334 54.7051 21.6066V20.7927L54.7115 20.7863Z"/>
    <path d="M59.1988 22.0711H59.1348V20.3281H59.1988V22.0711Z"/>
    <path d="M63.6327 20.3893H63.0496V22.0746H62.9855V20.3893H62.4023V20.3252H63.6263V20.3893H63.6327Z"/>
    <path d="M66.9 22.0711H66.8359L67.4831 20.3281H67.5793L68.2265 22.0711H68.1624L67.9317 21.4495H67.1371L66.9064 22.0711H66.9ZM67.5216 20.3858L67.1499 21.3855H67.8997L67.528 20.3858H67.5152H67.5216Z"/>
    <path d="M71.4297 22.0682V20.3252H71.4938V22.0105H72.3653V22.0746H71.4297V22.0682Z"/>
    <path d="M76.1663 21.155C76.4546 21.2127 76.7622 21.328 76.7366 21.6676C76.7174 21.9496 76.4354 22.097 76.147 22.097C75.9356 22.097 75.7049 22.0137 75.5703 21.815L75.628 21.7894C75.7433 21.9496 75.9484 22.0329 76.1534 22.0329C76.397 22.0329 76.634 21.9176 76.6661 21.6612C76.6853 21.3537 76.4162 21.2639 76.147 21.2063C75.8843 21.155 75.5703 21.0525 75.5895 20.7257C75.6024 20.4373 75.8715 20.3027 76.1534 20.3027C76.3777 20.3027 76.5892 20.3796 76.6981 20.5719L76.6405 20.5911C76.5507 20.4309 76.3521 20.3604 76.1534 20.3604C75.9099 20.3604 75.6728 20.4629 75.6536 20.7257C75.6344 20.982 75.8843 21.0909 76.1663 21.1486V21.155Z"/>
    <path d="M80.6014 22.0711H80.5374V21.379L79.9414 20.3281H80.0183L80.5758 21.315L81.1461 20.3281H81.223L80.6014 21.379V22.0711Z"/>
    <path d="M85.0237 21.155C85.312 21.2127 85.6196 21.328 85.594 21.6676C85.5748 21.9496 85.2928 22.097 85.0045 22.097C84.793 22.097 84.5623 22.0137 84.4277 21.815L84.4854 21.7894C84.6008 21.9496 84.8058 22.0329 85.0109 22.0329C85.2544 22.0329 85.4915 21.9176 85.5235 21.6612C85.5427 21.3537 85.2736 21.2639 85.0045 21.2063C84.7417 21.155 84.4277 21.0525 84.447 20.7257C84.4598 20.4373 84.7289 20.3027 85.0109 20.3027C85.2352 20.3027 85.4466 20.3796 85.5556 20.5719L85.4979 20.5911C85.4082 20.4309 85.2095 20.3604 85.0109 20.3604C84.7674 20.3604 84.5303 20.4629 84.511 20.7257C84.4918 20.982 84.7417 21.0909 85.0237 21.1486V21.155Z"/>
    <path d="M90.0292 20.3893H89.446V22.0746H89.382V20.3893H88.7988V20.3252H90.0228V20.3893H90.0292Z"/>
    <path d="M93.2985 21.1676H94.202V21.2317H93.2985V22.007H94.2725V22.0711H93.2344V20.3281H94.2725V20.3922H93.2985V21.174V21.1676Z"/>
    <path d="M97.5599 20.3858H97.5406V22.0711H97.4766V20.3281H97.6047L98.2263 21.7443L98.8479 20.3281H98.976V22.0711H98.912V20.3666H98.8927L98.2647 21.7892H98.1814L97.5535 20.3794L97.5599 20.3858Z"/>
    <path d="M102.776 21.155C103.064 21.2127 103.372 21.328 103.346 21.6676C103.327 21.9496 103.045 22.097 102.756 22.097C102.545 22.097 102.314 22.0137 102.18 21.815L102.237 21.7894C102.353 21.9496 102.558 22.0329 102.763 22.0329C103.006 22.0329 103.243 21.9176 103.275 21.6612C103.295 21.3537 103.026 21.2639 102.756 21.2063C102.494 21.155 102.18 21.0525 102.199 20.7257C102.212 20.4373 102.481 20.3027 102.763 20.3027C102.987 20.3027 103.199 20.3796 103.308 20.5719L103.25 20.5911C103.16 20.4309 102.961 20.3604 102.763 20.3604C102.519 20.3604 102.282 20.4629 102.263 20.7257C102.244 20.982 102.494 21.0909 102.776 21.1486V21.155Z"/>
    <path d="M10.3468 3.06787H0.228516V17.7615H10.3468V3.06787Z"/>
    <path d="M10.3468 24.1694H0.228516V34.967H10.3468V24.1694Z"/>
    <path d="M24.9632 17.7552V10.482H39.0224C39.3428 10.482 39.6504 10.4949 39.958 10.5077C40.0285 10.5077 40.099 10.5077 40.1695 10.5205C40.4642 10.5397 40.7526 10.5589 41.0281 10.591C41.0666 10.591 41.105 10.6038 41.1435 10.6038C42.0278 10.7063 42.8224 10.8729 43.5337 11.1036C43.5785 11.1164 43.617 11.1293 43.6618 11.1421C43.8797 11.219 44.0848 11.2959 44.2834 11.3856C44.3347 11.4048 44.3795 11.4304 44.4244 11.4497C45.2767 11.8405 45.9687 12.3468 46.507 12.9684C46.539 13.0068 46.5711 13.0453 46.6031 13.0837C46.7185 13.2311 46.8338 13.3785 46.9299 13.5323C46.9492 13.5643 46.9684 13.5964 46.9812 13.622C47.2952 14.1346 47.5259 14.7114 47.6669 15.3457C47.6733 15.3842 47.6861 15.4226 47.6925 15.4675C47.7309 15.6662 47.763 15.8712 47.7886 16.0827C47.7886 16.1403 47.8014 16.198 47.8014 16.2557C47.8207 16.4736 47.8335 16.6914 47.8335 16.9221V17.7552H57.939L57.9518 15.2176C57.9518 14.7818 57.9197 14.3653 57.8877 13.9552C57.8813 13.8463 57.8685 13.7373 57.8557 13.6348C57.8108 13.2375 57.7531 12.853 57.6826 12.4749C57.6698 12.398 57.6442 12.3212 57.6314 12.2443C57.3686 11.0459 56.9393 9.96299 56.3434 8.99538C56.3113 8.9377 56.2793 8.88003 56.2408 8.82236C56.0486 8.52759 55.8435 8.24563 55.6193 7.97009C55.5616 7.8996 55.4975 7.82911 55.4398 7.75862C54.4338 6.58595 53.1201 5.63115 51.5117 4.89422C51.422 4.85578 51.3323 4.81092 51.2426 4.77247C50.8645 4.61227 50.4736 4.45848 50.0635 4.3175C49.9866 4.29187 49.9033 4.26624 49.8264 4.2406C48.4871 3.80486 46.9812 3.48445 45.3151 3.29221C45.2446 3.28581 45.1677 3.27299 45.0972 3.26658C44.5718 3.20891 44.0271 3.17046 43.4696 3.13842C43.335 3.13201 43.2005 3.1256 43.0723 3.1192C42.502 3.09356 41.9188 3.07434 41.3101 3.07434H24.9503V3.06152H14.832V17.7552H24.9503H24.9632Z"/>
    <path d="M47.1158 24.1631C47.0709 24.2464 47.0197 24.3361 46.9684 24.413C46.9299 24.4771 46.8851 24.5348 46.8402 24.5924C46.7441 24.727 46.6544 24.8616 46.5455 24.9897C46.4814 25.073 46.4045 25.1435 46.3276 25.2204C46.2315 25.3165 46.1417 25.4191 46.0392 25.5088C45.9239 25.6113 45.7957 25.7074 45.6676 25.81C45.5971 25.8612 45.5266 25.9253 45.4561 25.9766C43.9246 27.0403 41.6561 27.5594 38.6828 27.5273H24.9503V24.1695H14.832V34.9735H24.9503V34.9542H40.6949C46.2955 35.0247 50.5761 34.0379 53.4661 32.0322C53.6071 31.936 53.7353 31.8271 53.8699 31.7246C54.1069 31.5387 54.3505 31.3593 54.5683 31.1607C54.7606 30.9877 54.9336 30.8018 55.1066 30.616C55.2412 30.475 55.3886 30.334 55.5167 30.1802C55.7154 29.9431 55.8948 29.6932 56.0678 29.4369C56.1447 29.3216 56.228 29.2126 56.3049 29.0909C56.4907 28.7961 56.6509 28.4821 56.8111 28.1617C56.856 28.072 56.9009 27.9823 56.9457 27.8926C57.1059 27.5401 57.2405 27.1749 57.3622 26.7968C57.3815 26.7263 57.4071 26.6558 57.4263 26.5853C57.5481 26.1816 57.6442 25.7587 57.7275 25.3294C57.7339 25.2781 57.7467 25.2268 57.7531 25.1756C57.8108 24.8487 57.8493 24.5155 57.8877 24.1695H47.1158V24.1631Z"/>
    <path d="M62.4439 14.2327C62.4759 14.2967 62.4759 14.3672 62.4824 14.4313C62.4824 14.5082 62.4952 14.5851 62.5016 14.6556C62.5336 14.9375 62.5721 15.2131 62.6233 15.4758C62.6362 15.5271 62.649 15.5847 62.6618 15.636C62.8348 16.4114 63.1039 17.1227 63.4692 17.7571H100.905C100.456 17.4303 99.9502 17.1419 99.4055 16.892C99.3414 16.86 99.2774 16.8343 99.2133 16.8023C98.9441 16.6869 98.6686 16.578 98.3802 16.4819C98.3226 16.4627 98.2649 16.4434 98.2136 16.4242C97.2652 16.1166 96.2015 15.8923 95.0288 15.7578C94.9776 15.7578 94.9263 15.745 94.875 15.7385C94.5034 15.7001 94.1189 15.6681 93.728 15.6488C93.6319 15.6488 93.5422 15.636 93.446 15.636C93.0423 15.6168 92.6322 15.604 92.2029 15.604H77.6566L76.2212 15.5976C76.0418 15.5976 75.8752 15.5976 75.7022 15.5847C75.6637 15.5847 75.6253 15.5847 75.5868 15.5847C75.4266 15.5783 75.2664 15.5655 75.1126 15.5463C75.0934 15.5463 75.0678 15.5463 75.0485 15.5399C73.6836 15.3861 72.2674 14.9696 71.6907 13.6623C71.3575 12.8998 71.4088 11.9834 71.8381 11.2657C72.716 9.79187 74.7986 9.58682 76.4006 9.60604H77.6566C77.6566 9.59322 88.7489 9.59322 88.7489 9.59322C88.7489 9.60604 90.0049 9.59963 90.0049 9.59963C91.6518 9.58041 92.9078 9.87518 93.7536 10.4583C93.7921 10.4839 93.8305 10.516 93.869 10.548C93.9395 10.5993 94.01 10.657 94.074 10.7146C94.1317 10.7659 94.183 10.8236 94.2342 10.8748C94.2727 10.9197 94.3175 10.9581 94.356 11.003C94.4137 11.0735 94.4649 11.144 94.5162 11.2209C94.5418 11.2529 94.561 11.2849 94.5867 11.3234C94.6443 11.4131 94.6892 11.5028 94.7341 11.5925C94.7469 11.6182 94.7597 11.6438 94.7725 11.6694C94.8174 11.772 94.8558 11.8809 94.8943 11.9898C94.8943 12.0091 94.9071 12.0283 94.9135 12.0539C94.9455 12.1757 94.9776 12.2974 95.0032 12.4256C95.0032 12.4384 95.0032 12.4576 95.0096 12.4704C95.0288 12.605 95.0481 12.7396 95.0545 12.8806C95.0545 12.8998 95.0545 13.7905 95.0545 13.7905H103.942L103.93 11.0222C103.93 11.0222 103.93 10.9966 103.93 10.9838C103.904 10.6441 103.866 10.3109 103.814 9.99052C103.814 9.95208 103.801 9.92003 103.795 9.88159C103.737 9.574 103.667 9.27923 103.584 8.99728C103.571 8.94601 103.552 8.90115 103.539 8.84989C103.455 8.58075 103.359 8.32443 103.244 8.07452C103.218 8.01044 103.18 7.94636 103.148 7.88228C103.039 7.65799 102.924 7.44012 102.795 7.22865C102.744 7.14535 102.686 7.06845 102.629 6.98515C102.507 6.80572 102.379 6.6263 102.238 6.45969C102.148 6.35075 102.046 6.25463 101.95 6.1521C101.828 6.02394 101.706 5.88937 101.571 5.76762C101.418 5.62664 101.245 5.49848 101.078 5.37032C100.982 5.29983 100.892 5.22294 100.796 5.15245C98.7519 3.73627 95.7337 3.03779 91.7735 3.08906H74.632C70.6718 3.03779 67.6537 3.73627 65.6095 5.15245C65.507 5.22294 65.4237 5.29983 65.3275 5.37032C65.1609 5.49848 64.9879 5.62664 64.8341 5.76762C64.6995 5.88937 64.5778 6.02394 64.456 6.1521C64.3599 6.25463 64.2574 6.35075 64.1677 6.45969C64.0267 6.6263 63.8985 6.80572 63.7768 6.98515C63.7191 7.06845 63.6614 7.14535 63.6102 7.22865C63.4756 7.44012 63.3603 7.65799 63.2513 7.88228C63.2193 7.94636 63.1872 8.01044 63.1552 8.07452C63.0463 8.32443 62.9501 8.58075 62.8604 8.84989C62.8476 8.90115 62.8284 8.94601 62.8156 8.99728C62.7323 9.28564 62.6618 9.58041 62.6041 9.88159C62.6041 9.92003 62.5913 9.95208 62.5849 9.99052C62.5336 10.3045 62.4952 10.6313 62.4695 10.9645C62.4503 10.9645 62.4375 13.5406 62.4375 13.5406C62.4375 13.6239 62.4439 13.6944 62.4503 13.7713V14.2262L62.4439 14.2327Z"/>
    <path d="M103.93 24.165H94.561C94.7533 24.4598 94.8814 24.7866 94.9327 25.1262C94.9455 25.216 94.9519 25.3057 94.9519 25.3954C94.9647 26.1323 94.5803 26.8436 94.0164 27.3434C92.9398 28.2854 91.3826 28.452 89.9793 28.4328H88.7233C88.7233 28.4456 77.631 28.4456 77.631 28.4456C77.631 28.4328 76.375 28.4392 76.375 28.4392C74.7281 28.4584 73.4722 28.1637 72.6263 27.5805C72.5878 27.5549 72.5494 27.5229 72.511 27.4908C72.4405 27.4396 72.37 27.3819 72.3059 27.3242C72.2482 27.2729 72.197 27.2153 72.1457 27.164C72.1072 27.1191 72.0624 27.0807 72.0239 27.0358C71.9663 26.9654 71.915 26.8949 71.8637 26.818C71.8381 26.7859 71.8189 26.7539 71.7932 26.7154C71.7356 26.6257 71.6907 26.536 71.6459 26.4463C71.633 26.4207 71.6202 26.395 71.6074 26.3694C71.5626 26.2669 71.5241 26.1579 71.4857 26.049C71.4857 26.0298 71.4728 26.0106 71.4664 25.9849C71.4344 25.8632 71.4024 25.7414 71.3767 25.6133C71.3767 25.6004 71.3767 25.5812 71.3703 25.5684C71.3511 25.4338 71.3319 25.2993 71.3255 25.1519C71.3255 25.1327 71.3255 24.2419 71.3255 24.2419H62.4375L62.4503 27.0102C62.4503 27.0102 62.4503 27.0358 62.4503 27.0487C62.476 27.3883 62.5144 27.7215 62.5657 28.0419C62.5657 28.0804 62.5785 28.1124 62.5849 28.1508C62.6426 28.4584 62.713 28.7532 62.7964 29.0352C62.8092 29.0864 62.8284 29.1313 62.8412 29.1825C62.9245 29.4517 63.0206 29.708 63.136 29.9579C63.1616 30.022 63.2001 30.0861 63.2321 30.1502C63.341 30.3744 63.4564 30.5923 63.5845 30.8038C63.6358 30.8871 63.6935 30.964 63.7512 31.0473C63.8729 31.2267 64.0011 31.4061 64.142 31.5727C64.2318 31.6817 64.3343 31.7778 64.4304 31.8803C64.5522 32.0085 64.6739 32.1431 64.8085 32.2648C64.9623 32.4058 65.1353 32.534 65.3019 32.6621C65.398 32.7326 65.4877 32.8095 65.5839 32.88C67.628 34.2962 70.6462 34.9946 74.6064 34.9434C74.6064 34.9562 91.7479 34.9434 91.7479 34.9434C95.7081 34.9946 98.7263 34.2962 100.77 32.88C100.873 32.8095 100.956 32.7326 101.052 32.6621C101.219 32.534 101.392 32.4058 101.546 32.2648C101.68 32.1431 101.802 32.0085 101.924 31.8803C102.02 31.7778 102.123 31.6817 102.212 31.5727C102.353 31.4061 102.481 31.2267 102.603 31.0473C102.661 30.964 102.718 30.8871 102.77 30.8038C102.904 30.5923 103.02 30.3744 103.129 30.1502C103.161 30.0861 103.193 30.022 103.225 29.9579C103.334 29.708 103.43 29.4517 103.519 29.1825C103.532 29.1313 103.552 29.0864 103.564 29.0352C103.648 28.7468 103.718 28.452 103.776 28.1508C103.776 28.1124 103.789 28.0804 103.795 28.0419C103.846 27.7279 103.885 27.4011 103.91 27.0679C103.923 27.0679 103.936 24.4919 103.936 24.4919C103.936 24.447 103.936 24.4021 103.93 24.3509V24.165Z"/>
</symbol><symbol id="next" viewBox="0 0 477.175 477.175" style="enable-background:new 0 0 477.175 477.175" xml:space="preserve" xmlns="http://www.w3.org/2000/svg">
    <g>
        <path d="M360.731,229.075l-225.1-225.1c-5.3-5.3-13.8-5.3-19.1,0s-5.3,13.8,0,19.1l215.5,215.5l-215.5,215.5 c-5.3,5.3-5.3,13.8,0,19.1c2.6,2.6,6.1,4,9.5,4c3.4,0,6.9-1.3,9.5-4l225.1-225.1C365.931,242.875,365.931,234.275,360.731,229.075z "/>
    </g>
</symbol><symbol id="prev" viewBox="0 0 477.175 477.175" style="enable-background:new 0 0 477.175 477.175" xml:space="preserve" xmlns="http://www.w3.org/2000/svg">
    <g>
        <path d="M145.188,238.575l215.5-215.5c5.3-5.3,5.3-13.8,0-19.1s-13.8-5.3-19.1,0l-225.1,225.1c-5.3,5.3-5.3,13.8,0,19.1l225.1,225 c2.6,2.6,6.1,4,9.5,4s6.9-1.3,9.5-4c5.3-5.3,5.3-13.8,0-19.1L145.188,238.575z"/>
    </g>
</symbol><symbol viewBox="0 0 15 18" id="search" xmlns="http://www.w3.org/2000/svg">
    <path d="M14.4297 16.5709L10.8583 12.2852" stroke-width="1.5"/>
    <path d="M0.861608 7.28599C0.861608 10.8364 3.73978 13.7146 7.29018 13.7146C10.8406 13.7146 13.7188 10.8364 13.7188 7.28599C13.7188 3.73559 10.8406 0.857422 7.29018 0.857422C3.73978 0.857422 0.861608 3.73559 0.861608 7.28599Z" stroke-width="1.5"/>
</symbol><symbol viewBox="0 0 20 16" id="twitter" xmlns="http://www.w3.org/2000/svg">
    <path d="M19.5 1.86044C18.8452 2.30784 18.0764 2.5454 17.2907 2.54315C18.1308 2.03341 18.7597 1.22354 19.0581 0.267437C18.3618 0.873808 17.4843 1.21527 16.5727 1.23462C15.9716 0.600508 15.1871 0.18429 14.3369 0.0484272C13.4867 -0.0874361 12.6167 0.0643832 11.8574 0.481101C11.098 0.897819 10.4904 1.55696 10.1256 2.3596C9.76086 3.16224 9.65864 4.06509 9.8343 4.93265C8.28743 4.84853 6.77502 4.43024 5.39528 3.70493C4.01554 2.97962 2.79932 1.96351 1.82558 0.722581C1.34909 1.6107 1.20958 2.64938 1.43407 3.6374C1.65856 4.62542 2.23108 5.49244 3.0407 6.07051C2.42967 6.07941 1.82487 5.94313 1.27326 5.67226C1.28811 6.58871 1.60093 7.47355 2.16167 8.18523C2.72241 8.89691 3.49867 9.39432 4.36628 9.59787C3.78874 9.75323 3.18466 9.77267 2.59884 9.65477C2.85155 10.4666 3.34391 11.1771 4.00726 11.687C4.67062 12.1969 5.4719 12.4809 6.29942 12.4994C4.55172 13.5915 2.5441 14.1627 0.5 14.1493C2.21195 15.3005 4.20048 15.9398 6.24424 15.996C8.28799 16.0521 10.3068 15.5229 12.0759 14.4673C13.8449 13.4117 15.2949 11.871 16.2644 10.0169C17.2338 8.16279 17.6847 6.06791 17.5669 3.96548C18.2957 3.35152 18.9453 2.64411 19.5 1.86044Z"/>
</symbol><symbol id="user" viewBox="0 0 309.627 309.627" style="enable-background:new 0 0 309.627 309.627" xml:space="preserve" xmlns="http://www.w3.org/2000/svg">
    <g>
        <path style="fill:#010002" d="M157.603,0.042c-3.061,0-5.328,0.197-6.516,0.328C149.846,0.221,147.423,0,144.166,0 c-10.323,0-29.948,2.309-45.402,17.799C84.395,32.191,77.14,54.346,77.187,83.632c0.095,50.259,19.524,79.849,35.807,95.822 c17.817,17.477,35.64,22.853,36.392,23.074c0.549,0.161,1.116,0.245,1.683,0.245c0.513,0,1.026-0.066,1.528-0.197 c0.8-0.215,79.884-22.298,76.185-119.182C225.822,6.056,173.552,0.042,157.603,0.042z M151.159,190.546 c-10.072-3.634-61.894-26.284-62.044-106.938c-0.048-26.004,6.038-45.312,18.086-57.377c12.417-12.441,28.486-14.297,36.959-14.297 c3.646,0,5.961,0.346,5.967,0.346c0.591,0.09,1.211,0.095,1.808,0.006c0.018,0,2.19-0.31,5.669-0.31 c16.994,0,56.775,7.005,59.245,71.865C219.927,164.548,162.006,187.049,151.159,190.546z"/>
        <path style="fill:#010002" d="M214.622,180.373c-0.835,3.186,1.074,6.45,4.26,7.286c15.997,4.195,55.038,16.892,76.513,45.074 v64.961H14.219v-64.961c21.206-27.812,59.71-40.569,75.493-44.805c3.18-0.853,5.072-4.129,4.219-7.309 c-0.853-3.18-4.105-5.09-7.309-4.219c-21.481,5.764-60.85,20.037-83.196,50.856c-0.74,1.014-1.134,2.244-1.134,3.503v72.903 c0,3.294,2.673,5.967,5.967,5.967h293.111c3.294,0,5.967-2.673,5.967-5.967v-72.903c0-1.259-0.394-2.488-1.14-3.503 c-23.468-32.376-66.763-46.548-84.288-51.142C218.728,175.277,215.452,177.186,214.622,180.373z"/>
    </g>
</symbol><symbol viewBox="0 0 22 16" id="youtube" xmlns="http://www.w3.org/2000/svg">
    <path d="M21.45 2.42857C21.175 1.42857 20.4875 0.714286 19.525 0.428572C17.875 2.55448e-07 10.8625 0 10.8625 0C10.8625 0 3.98751 2.55448e-07 2.20001 0.428572C1.23751 0.714286 0.549996 1.42857 0.274996 2.42857C-4.20026e-06 4.28572 0 8 0 8C0 8 4.17978e-06 11.7143 0.412504 13.5714C0.687504 14.5714 1.375 15.2857 2.3375 15.5714C3.9875 16 11 16 11 16C11 16 17.875 16 19.6625 15.5714C20.625 15.2857 21.3125 14.5714 21.5875 13.5714C22 11.7143 22 8 22 8C22 8 22 4.28572 21.45 2.42857ZM8.79999 11.4286V4.57143L14.575 8L8.79999 11.4286Z"/>
</symbol></svg>