<svg width="13" height="17" viewBox="0 0 13 17" fill="none" xmlns="http://www.w3.org/2000/svg">
<path d="M7.75298 0.583984C8.12471 0.584075 8.48455 0.714953 8.76948 0.953693L8.8724 1.0479L12.3668 4.54232C12.6297 4.80517 12.7916 5.15212 12.8244 5.5224L12.8307 5.66173V14.834C12.8309 15.2334 12.68 15.6182 12.4084 15.9111C12.1368 16.204 11.7645 16.3834 11.3661 16.4134L11.2474 16.4173H1.7474C1.34794 16.4174 0.963197 16.2666 0.670295 15.995C0.377393 15.7234 0.19798 15.3511 0.168021 14.9527L0.164063 14.834V2.16732C0.163936 1.76786 0.314801 1.38312 0.586414 1.09022C0.858028 0.797315 1.23031 0.617902 1.62865 0.587943L1.7474 0.583984H7.75298ZM6.4974 2.16732H1.7474V14.834H11.2474V6.91732H7.6849C7.36995 6.91732 7.06791 6.79221 6.84521 6.56951C6.62251 6.34681 6.4974 6.04476 6.4974 5.72982V2.16732ZM8.08073 2.49507V5.33398H10.9196L8.08073 2.49507Z" fill="#4F4F52"/>
</svg>
