<?xml version="1.0" encoding="utf-8"?><svg viewBox="0 0 477.18 477.18" xmlns="http://www.w3.org/2000/svg" xmlns:xlink="http://www.w3.org/1999/xlink"><style>:root>svg{display:none}:root>svg:target{display:block}</style><svg fill="none" viewBox="0 0 15 14" id="arrow" xmlns="http://www.w3.org/2000/svg">
    <path d="M14.639 7.639a.904.904 0 0 0 0-1.278L8.889.61A.904.904 0 0 0 7.61 1.887L12.722 7 7.611 12.11a.904.904 0 0 0 1.277 1.278l5.75-5.75ZM0 7.903h14V6.096H0v1.807Z" fill="#797979"/>
</svg><svg fill="none" viewBox="0 0 16 16" id="facebook" xmlns="http://www.w3.org/2000/svg">
    <path fill-rule="evenodd" clip-rule="evenodd" d="M14 0H2C.897 0 0 .897 0 2v12c0 1.103.897 2 2 2h6v-5.5H6V8h2V6a3 3 0 0 1 3-3h2v2.5h-1c-.552 0-1-.052-1 .5v2h2.5l-1 2.5H11V16h3c1.103 0 2-.897 2-2V2c0-1.103-.897-2-2-2Z" fill="#333037"/>
</svg><svg fill="none" viewBox="0 0 13 17" id="file" xmlns="http://www.w3.org/2000/svg">
    <path d="M7.753.584c.372 0 .732.131 1.016.37l.103.094 3.495 3.494c.263.263.425.61.457.98l.007.14v9.172a1.583 1.583 0 0 1-1.465 1.58l-.119.003h-9.5a1.583 1.583 0 0 1-1.579-1.464l-.004-.119V2.167A1.583 1.583 0 0 1 1.63.587l.118-.003h6.006ZM6.497 2.167h-4.75v12.667h9.5V6.917H7.685A1.187 1.187 0 0 1 6.497 5.73V2.167Zm1.584.328v2.839h2.839L8.08 2.495Z" fill="#4F4F52"/>
</svg><svg fill="none" viewBox="0 0 16 16" id="instagram" xmlns="http://www.w3.org/2000/svg">
    <path d="M8 1.446h3.277c.771 0 1.157.193 1.446.289.385.193.675.29.964.578.289.29.482.579.578.964.096.29.193.675.29 1.446v6.554c0 .771-.194 1.157-.29 1.446-.193.385-.29.675-.578.964-.29.289-.579.482-.964.578-.29.096-.675.193-1.446.29H4.723c-.771 0-1.157-.194-1.446-.29-.385-.193-.675-.29-.964-.578-.289-.29-.482-.579-.578-.964-.096-.29-.193-.675-.29-1.446V4.723c0-.771.194-1.157.29-1.446.193-.385.29-.675.578-.964.29-.289.579-.482.964-.578.29-.096.675-.193 1.446-.29H8ZM8 0H4.723c-.868 0-1.446.193-1.928.386a4.209 4.209 0 0 0-1.446.963c-.482.482-.674.868-.963 1.446-.193.482-.29 1.06-.386 1.928v6.554c0 .868.193 1.446.386 1.928.192.482.481.964.963 1.446s.868.674 1.446.963c.482.193 1.06.29 1.928.386h6.554c.868 0 1.446-.193 1.928-.386a4.21 4.21 0 0 0 1.446-.963c.482-.482.674-.868.963-1.446.193-.482.29-1.06.386-1.928V4.723c0-.868-.193-1.446-.386-1.928a4.21 4.21 0 0 0-.963-1.446c-.482-.482-.868-.674-1.446-.963-.482-.193-1.06-.29-1.928-.386H8Z" fill="#333037"/>
    <path d="M8 3.855A4.114 4.114 0 0 0 3.855 8 4.114 4.114 0 0 0 8 12.145 4.114 4.114 0 0 0 12.145 8 4.114 4.114 0 0 0 8 3.855ZM8 10.7A2.694 2.694 0 0 1 5.301 8 2.694 2.694 0 0 1 8 5.301 2.694 2.694 0 0 1 10.699 8c0 1.446-1.253 2.699-2.699 2.699ZM12.241 4.723a.964.964 0 1 0 0-1.928.964.964 0 0 0 0 1.928Z" fill="#333037"/>
</svg><svg fill="none" viewBox="0 0 106 38" id="logo" xmlns="http://www.w3.org/2000/svg">
    <path d="M1.744 22.071H1.68v-1.743h.064v1.743ZM6.081 22.013v-1.685h.065v1.743h-.11l-1.025-1.666v1.666h-.064v-1.743h.096l1.038 1.685ZM10.58 20.39h-.583v1.685h-.064v-1.686H9.35v-.064h1.223v.064h.007ZM13.85 21.168h.903v.064h-.904v.775h.974v.064h-1.038v-1.743h1.038v.064h-.974v.782-.006ZM18.027 22.068v-1.743h.064v1.685h.872v.064h-.936v-.006ZM22.166 22.068v-1.743h.064v1.685h.872v.064h-.936v-.006ZM26.37 22.071h-.063v-1.743h.064v1.743ZM29.58 20.786c0-.32.308-.487.61-.487.217 0 .435.084.538.257l-.058.038c-.09-.16-.288-.23-.487-.23-.276 0-.545.14-.545.429v.814c0 .288.276.435.551.435.276 0 .552-.147.552-.435v-.334h-.539v-.057h.596v.39c0 .334-.307.494-.615.494s-.609-.167-.609-.493v-.814l.007-.007ZM34.066 21.168h.904v.064h-.904v.775h.974v.064h-1.038v-1.743h1.038v.064h-.974v.782-.006ZM39.378 22.013v-1.685h.064v1.743h-.108l-1.026-1.666v1.666h-.064v-1.743h.096l1.038 1.685ZM43.877 20.389h-.583v1.685h-.064V20.39h-.583v-.064h1.223v.064h.007ZM47.67 20.325c.307 0 .563.14.563.468v.813c0 .327-.256.468-.563.468h-.59v-1.743h.59v-.006Zm0 1.685c.275 0 .5-.115.5-.404v-.814c0-.288-.225-.41-.5-.41h-.526v1.622h.526v.006ZM51.502 22.071h-.065v-1.743h.065v1.743ZM54.712 20.786c0-.32.307-.487.608-.487.218 0 .436.084.538.257l-.057.038c-.09-.16-.288-.23-.487-.23-.276 0-.545.14-.545.429v.814c0 .288.276.435.551.435.276 0 .551-.147.551-.435v-.334h-.538v-.057h.596v.39c0 .334-.308.494-.615.494-.308 0-.609-.167-.609-.493v-.814l.007-.007ZM59.199 22.071h-.064v-1.743h.064v1.743ZM63.633 20.39h-.583v1.685h-.064v-1.686h-.584v-.064h1.224v.064h.007ZM66.9 22.071h-.064l.647-1.743h.096l.648 1.743h-.065l-.23-.622h-.795l-.23.622H66.9Zm.622-1.685-.372 1h.75l-.372-1h-.013.007ZM71.43 22.068v-1.743h.064v1.686h.871v.064h-.935v-.007ZM76.166 21.155c.289.058.596.173.57.513-.019.282-.3.429-.589.429-.211 0-.442-.083-.577-.282l.058-.026c.115.16.32.244.525.244.244 0 .481-.115.513-.372.02-.307-.25-.397-.519-.455-.263-.051-.577-.154-.558-.48.013-.289.282-.423.564-.423.225 0 .436.077.545.269l-.057.02c-.09-.161-.289-.232-.488-.232-.243 0-.48.103-.5.366-.019.256.231.365.513.423v.006ZM80.601 22.071h-.064v-.692l-.596-1.05h.077l.558.986.57-.987h.077l-.622 1.051v.692ZM85.024 21.155c.288.058.596.173.57.513-.02.282-.301.429-.59.429-.211 0-.442-.083-.576-.282l.057-.026c.116.16.32.244.526.244.243 0 .48-.115.513-.372.019-.307-.25-.397-.52-.455-.262-.051-.576-.154-.557-.48.013-.289.282-.423.564-.423.224 0 .436.077.545.269l-.058.02c-.09-.161-.288-.232-.487-.232-.244 0-.48.103-.5.366-.02.256.23.365.513.423v.006ZM90.03 20.39h-.584v1.685h-.064v-1.686h-.583v-.064h1.224v.064h.006ZM93.299 21.168h.903v.064h-.903v.775h.973v.064h-1.038v-1.743h1.038v.064h-.974v.782-.006ZM97.56 20.386h-.02v1.685h-.063v-1.743h.128l.621 1.416.622-1.416h.128v1.743h-.064v-1.704h-.02l-.627 1.422h-.084l-.627-1.41.006.007ZM102.776 21.155c.288.058.596.173.57.513-.019.282-.301.429-.59.429-.211 0-.442-.083-.576-.282l.057-.026c.116.16.321.244.526.244.243 0 .48-.115.512-.372.02-.307-.249-.397-.519-.455-.262-.051-.576-.154-.557-.48.013-.289.282-.423.564-.423.224 0 .436.077.545.269l-.058.02c-.09-.161-.289-.232-.487-.232-.244 0-.481.103-.5.366-.019.256.231.365.513.423v.006Z" fill="#000"/>
    <path d="M10.347 3.068H.229v14.694h10.118V3.068ZM10.347 24.17H.229v10.797h10.118V24.169ZM24.963 17.755v-7.273h14.06c.32 0 .627.013.935.026.07 0 .141 0 .212.013.294.019.583.038.858.07.039 0 .077.013.116.013.884.102 1.678.269 2.39.5.044.012.083.025.128.038.218.077.423.154.621.244.052.019.096.044.141.064.853.39 1.545.897 2.083 1.518l.096.116c.115.147.23.295.327.448.02.032.038.064.051.09.314.513.545 1.09.686 1.724.006.038.02.077.026.121.038.2.07.404.096.616 0 .057.012.115.012.173.02.218.032.435.032.666v.833H57.94l.013-2.537a16.015 16.015 0 0 0-.27-2.743c-.012-.077-.038-.154-.05-.23a10.385 10.385 0 0 0-1.289-3.25c-.032-.057-.064-.115-.102-.173a9.98 9.98 0 0 0-.622-.852c-.057-.07-.121-.14-.18-.211-1.005-1.173-2.319-2.128-3.927-2.865-.09-.038-.18-.083-.27-.122a18.08 18.08 0 0 0-1.178-.455c-.077-.025-.16-.05-.238-.076-1.339-.436-2.845-.757-4.51-.949-.071-.006-.148-.019-.219-.025a31.652 31.652 0 0 0-2.025-.148 38.921 38.921 0 0 0-1.762-.045H24.95v-.012H14.832v14.693h10.131ZM47.116 24.163a3.203 3.203 0 0 1-.276.43c-.096.134-.186.269-.295.397-.064.083-.14.154-.217.23-.097.097-.186.2-.289.289-.115.102-.243.198-.371.301-.07.051-.141.115-.212.167-1.531 1.063-3.8 1.582-6.773 1.55H24.95V24.17H14.832v10.805H24.95v-.02h15.745c5.6.07 9.881-.916 12.771-2.922.141-.096.27-.205.404-.307.237-.186.48-.366.698-.564.193-.173.366-.36.539-.545.134-.141.282-.282.41-.436.198-.237.378-.487.55-.743.078-.115.161-.224.238-.346.186-.295.346-.609.506-.93l.135-.268c.16-.353.294-.718.416-1.096.02-.07.045-.141.064-.212.122-.403.218-.826.301-1.256.007-.05.02-.102.026-.153.058-.327.096-.66.135-1.006H47.116v-.007ZM62.444 14.233c.032.064.032.134.038.198 0 .077.013.154.02.225.032.281.07.557.121.82l.039.16c.173.775.442 1.487.807 2.121h37.436a8.748 8.748 0 0 0-1.5-.865c-.064-.032-.128-.058-.192-.09-.269-.115-.544-.224-.833-.32a5.023 5.023 0 0 1-.166-.058 16.397 16.397 0 0 0-3.185-.666c-.051 0-.103-.013-.154-.02-.372-.038-.756-.07-1.147-.09-.096 0-.186-.012-.282-.012-.404-.02-.814-.032-1.243-.032H77.657l-1.436-.006c-.18 0-.346 0-.519-.013h-.115c-.16-.007-.32-.02-.474-.039-.02 0-.045 0-.064-.006-1.365-.154-2.782-.57-3.358-1.878a2.66 2.66 0 0 1 .147-2.396c.878-1.474 2.96-1.68 4.563-1.66h1.256c0-.013 11.092-.013 11.092-.013 0 .013 1.256.007 1.256.007 1.647-.02 2.903.275 3.749.858.038.026.076.058.115.09.07.051.141.109.205.167.058.05.109.109.16.16.039.045.084.083.122.128.058.07.109.141.16.218.026.032.045.064.07.102.058.09.103.18.148.27l.038.076c.045.103.084.212.122.32 0 .02.013.04.02.065.031.122.064.243.09.372 0 .012 0 .032.006.044.019.135.038.27.044.41v.91h8.888l-.012-2.768v-.038c-.026-.34-.064-.673-.116-.993 0-.039-.013-.071-.019-.11a9.106 9.106 0 0 0-.211-.884c-.013-.051-.032-.096-.045-.147a6.412 6.412 0 0 0-.295-.775c-.026-.065-.064-.129-.096-.193a7.77 7.77 0 0 0-.353-.653c-.051-.084-.109-.16-.166-.244a6.25 6.25 0 0 0-.391-.525c-.09-.11-.192-.205-.288-.308-.122-.128-.244-.263-.379-.384-.153-.141-.326-.27-.493-.398-.096-.07-.186-.147-.282-.218-2.044-1.416-5.062-2.114-9.023-2.063H74.632c-3.96-.051-6.978.647-9.023 2.063-.102.07-.185.148-.281.218-.167.128-.34.257-.494.398-.135.121-.256.256-.378.384-.096.103-.199.199-.288.308-.141.166-.27.346-.391.525-.058.083-.116.16-.167.244-.134.211-.25.429-.359.653l-.096.193a9.26 9.26 0 0 0-.295.775c-.012.051-.032.096-.044.147a9.89 9.89 0 0 0-.212.885c0 .038-.013.07-.02.109-.05.314-.089.64-.115.973-.019 0-.032 2.577-.032 2.577 0 .083.007.153.013.23v.455l-.006.007ZM103.93 24.165h-9.369c.192.295.32.622.372.961.012.09.019.18.019.27.013.736-.372 1.448-.936 1.947-1.076.942-2.633 1.109-4.037 1.09h-1.256c0 .013-11.092.013-11.092.013 0-.013-1.256-.007-1.256-.007-1.647.02-2.903-.275-3.749-.858a1.37 1.37 0 0 1-.115-.09 2.565 2.565 0 0 1-.205-.167c-.058-.051-.109-.109-.16-.16-.039-.045-.084-.083-.122-.128a2.731 2.731 0 0 1-.16-.218c-.026-.032-.045-.064-.07-.103a2.795 2.795 0 0 1-.148-.269l-.039-.077a4.744 4.744 0 0 1-.121-.32c0-.02-.013-.038-.02-.064a6.388 6.388 0 0 1-.09-.372c0-.013 0-.032-.006-.045-.019-.134-.038-.269-.044-.416v-.91h-8.888l.012 2.768v.039c.026.34.064.672.116.993 0 .038.012.07.019.109.058.307.128.602.211.884.013.051.032.096.045.148.084.269.18.525.295.775.026.064.064.128.096.192.109.224.224.442.352.654.052.083.11.16.167.243.122.18.25.36.391.526.09.109.192.205.288.307.122.128.244.263.378.385.154.14.327.269.494.397.096.07.186.148.282.218 2.044 1.416 5.062 2.115 9.022 2.063 0 .013 17.142 0 17.142 0 3.96.052 6.978-.647 9.022-2.063.103-.07.186-.147.282-.218.167-.128.34-.256.494-.397.134-.122.256-.257.378-.385.096-.102.199-.198.288-.307.141-.167.269-.346.391-.526.058-.083.115-.16.167-.243.134-.212.25-.43.359-.654l.096-.192c.109-.25.205-.506.294-.775.013-.052.033-.097.045-.148.084-.288.154-.583.212-.884 0-.039.013-.07.019-.11.051-.313.09-.64.115-.973.013 0 .026-2.576.026-2.576 0-.045 0-.09-.006-.141v-.186Z" fill="#333037"/>
</svg><svg viewBox="0 0 477.175 477.175" style="enable-background:new 0 0 477.175 477.175" xml:space="preserve" id="next" xmlns="http://www.w3.org/2000/svg">
    <path d="m360.731 229.075-225.1-225.1c-5.3-5.3-13.8-5.3-19.1 0s-5.3 13.8 0 19.1l215.5 215.5-215.5 215.5c-5.3 5.3-5.3 13.8 0 19.1 2.6 2.6 6.1 4 9.5 4 3.4 0 6.9-1.3 9.5-4l225.1-225.1c5.3-5.2 5.3-13.8.1-19z"/>
</svg><svg viewBox="0 0 477.175 477.175" style="enable-background:new 0 0 477.175 477.175" xml:space="preserve" id="prev" xmlns="http://www.w3.org/2000/svg">
    <path d="m145.188 238.575 215.5-215.5c5.3-5.3 5.3-13.8 0-19.1s-13.8-5.3-19.1 0l-225.1 225.1c-5.3 5.3-5.3 13.8 0 19.1l225.1 225c2.6 2.6 6.1 4 9.5 4s6.9-1.3 9.5-4c5.3-5.3 5.3-13.8 0-19.1l-215.4-215.5z"/>
</svg><svg fill="none" viewBox="0 0 15 18" id="search" xmlns="http://www.w3.org/2000/svg">
    <path d="m14.43 16.57-3.572-4.285M.862 7.286a6.429 6.429 0 1 0 12.857 0 6.429 6.429 0 0 0-12.857 0Z" stroke="#000" stroke-width="1.5"/>
</svg><svg fill="none" viewBox="0 0 20 16" id="twitter" xmlns="http://www.w3.org/2000/svg">
    <path d="M19.5 1.86a3.894 3.894 0 0 1-2.21.683A4.076 4.076 0 0 0 19.059.267a3.91 3.91 0 0 1-2.485.968A3.939 3.939 0 0 0 14.337.048a3.876 3.876 0 0 0-2.48.433 4.047 4.047 0 0 0-1.731 1.879 4.209 4.209 0 0 0-.292 2.573 10.796 10.796 0 0 1-4.439-1.228A11.117 11.117 0 0 1 1.825.723a4.205 4.205 0 0 0-.39 2.914A4.102 4.102 0 0 0 3.04 6.071a3.88 3.88 0 0 1-1.768-.399c.015.917.328 1.802.889 2.513a3.962 3.962 0 0 0 2.204 1.413 3.864 3.864 0 0 1-1.767.057 4.095 4.095 0 0 0 1.408 2.032c.664.51 1.465.794 2.292.812A10.804 10.804 0 0 1 .5 14.15a10.822 10.822 0 0 0 5.744 1.847 10.795 10.795 0 0 0 5.832-1.529 11.234 11.234 0 0 0 4.188-4.45 11.663 11.663 0 0 0 1.303-6.052A11.249 11.249 0 0 0 19.5 1.86Z" fill="#333037"/>
</svg><svg viewBox="0 0 309.627 309.627" style="enable-background:new 0 0 309.627 309.627" xml:space="preserve" id="user" xmlns="http://www.w3.org/2000/svg">
    <path style="fill:#010002" d="M157.603.042c-3.061 0-5.328.197-6.516.328-1.241-.149-3.664-.37-6.921-.37-10.323 0-29.948 2.309-45.402 17.799C84.395 32.191 77.14 54.346 77.187 83.632c.095 50.259 19.524 79.849 35.807 95.822 17.817 17.477 35.64 22.853 36.392 23.074a5.985 5.985 0 0 0 3.211.048c.8-.215 79.884-22.298 76.185-119.182C225.822 6.056 173.552.042 157.603.042zm-6.444 190.504c-10.072-3.634-61.894-26.284-62.044-106.938-.048-26.004 6.038-45.312 18.086-57.377 12.417-12.441 28.486-14.297 36.959-14.297 3.646 0 5.961.346 5.967.346a6.12 6.12 0 0 0 1.808.006c.018 0 2.19-.31 5.669-.31 16.994 0 56.775 7.005 59.245 71.865 3.078 80.707-54.843 103.208-65.69 106.705z"/>
    <path style="fill:#010002" d="M214.622 180.373a5.972 5.972 0 0 0 4.26 7.286c15.997 4.195 55.038 16.892 76.513 45.074v64.961H14.219v-64.961c21.206-27.812 59.71-40.569 75.493-44.805a5.972 5.972 0 0 0 4.219-7.309c-.853-3.18-4.105-5.09-7.309-4.219-21.481 5.764-60.85 20.037-83.196 50.856a5.944 5.944 0 0 0-1.134 3.503v72.903a5.969 5.969 0 0 0 5.967 5.967H301.37a5.969 5.969 0 0 0 5.967-5.967v-72.903a5.91 5.91 0 0 0-1.14-3.503c-23.468-32.376-66.763-46.548-84.288-51.142-3.181-.837-6.457 1.072-7.287 4.259z"/>
</svg><svg fill="none" viewBox="0 0 22 16" id="youtube" xmlns="http://www.w3.org/2000/svg">
    <path d="M21.45 2.429c-.275-1-.962-1.715-1.925-2C17.875 0 10.863 0 10.863 0S3.988 0 2.2.429c-.962.285-1.65 1-1.925 2C0 4.286 0 8 0 8s0 3.714.413 5.571c.275 1 .962 1.715 1.924 2C3.987 16 11 16 11 16s6.875 0 8.663-.429c.962-.285 1.65-1 1.924-2C22 11.714 22 8 22 8s0-3.714-.55-5.571Zm-12.65 9V4.57L14.575 8 8.8 11.429Z" fill="#333037"/>
</svg></svg>